<svg xmlns="http://www.w3.org/2000/svg" viewBox="0 0 512 512"><path d="M206.89 157.257c-14.692 0-26.645 11.953-26.645 26.645s11.953 26.645 26.645 26.645 26.645-11.953 26.645-26.645-11.953-26.645-26.645-26.645zm0 37.616c-6.05 0-10.971-4.921-10.971-10.971s4.921-10.971 10.971-10.971 10.971 4.922 10.971 10.971c0 6.05-4.921 10.971-10.971 10.971zm97.175-37.616c-14.691 0-26.645 11.953-26.645 26.645s11.954 26.645 26.645 26.645 26.645-11.953 26.645-26.645-11.953-26.645-26.645-26.645zm0 37.616c-6.05 0-10.971-4.921-10.971-10.971s4.921-10.971 10.971-10.971 10.971 4.922 10.971 10.971c.001 6.05-4.921 10.971-10.971 10.971zM175.02 367.804c-14.404 0-26.122 11.719-26.122 26.122s11.719 26.122 26.122 26.122c14.404 0 26.122-11.719 26.122-26.122s-11.718-26.122-26.122-26.122zm0 36.571c-5.762 0-10.449-4.687-10.449-10.449s4.687-10.449 10.449-10.449 10.449 4.687 10.449 10.449-4.687 10.449-10.449 10.449z"/><path d="M255.478 0C190.66 0 137.927 52.733 137.927 117.551v41.796c0 53.014 35.28 97.937 83.592 112.543v75.016c0 18.725 15.234 33.959 33.959 33.959 18.726 0 33.959-15.235 33.959-33.959V271.89c48.312-14.606 83.592-59.529 83.592-112.543v-41.796C373.029 52.733 320.295 0 255.478 0zm-48.995 28.253c14.546-8.013 31.246-12.58 48.994-12.58 17.749 0 34.448 4.566 48.995 12.58v58.066c0 27.016-21.978 48.995-48.995 48.995-13.087 0-25.392-5.096-34.645-14.35-9.254-9.254-14.35-21.557-14.35-34.646V28.253zM153.6 117.551c0-31.644 14.502-59.964 37.209-78.663v47.431c0 1.184.039 2.361.101 3.535-15.579 10.232-28.264 23.733-37.31 39.405v-11.708zm120.163 229.355c0 10.082-8.203 18.286-18.286 18.286-10.082 0-18.286-8.203-18.286-18.286v-2.753a33.742 33.742 0 0 0 18.286 5.366 33.75 33.75 0 0 0 18.286-5.366v2.753zm0-31.347c0 10.082-8.203 18.286-18.286 18.286-10.082 0-18.286-8.203-18.286-18.286v-2.753a33.742 33.742 0 0 0 18.286 5.366 33.75 33.75 0 0 0 18.286-5.366v2.753zm0-31.347c0 10.082-8.203 18.286-18.286 18.286-10.082 0-18.286-8.204-18.286-18.286v-8.738a118.049 118.049 0 0 0 36.572 0v8.738zm-18.285-22.988c-51.309 0-93.873-38.129-100.864-87.539 3.799-26.903 17.966-50.74 39.494-66.932 3.127 9.425 8.416 18.067 15.641 25.294 12.214 12.214 28.455 18.941 45.729 18.941 28.52 0 52.77-18.566 61.343-44.241a102.024 102.024 0 0 1 10.699 9.292c15.562 15.561 25.76 36.008 28.818 57.669-7 49.4-49.559 87.516-100.86 87.516zM357.355 129.51c-5.134-8.93-11.418-17.218-18.752-24.553a117.722 117.722 0 0 0-18.557-15.102c.064-1.171.1-2.349.1-3.536V38.888c22.707 18.699 37.209 47.019 37.209 78.663v11.959zm-53.812 257.625h15.673v15.673h-15.673zm31.347 0h15.674v15.673H334.89zM67.396 399.151h15.673V512H67.396z"/><path d="M413.257 277.943h-7.837v41.535h-16.718v-41.535h-86.204v15.673h70.531v202.71h-67.396v-34.482c0-27.655-22.499-50.155-50.155-50.155-27.656 0-50.155 22.5-50.155 50.155v34.482h-67.396v-202.71h70.531v-15.673h-86.204v41.535H106.58v-41.535h-7.837c-30.248 0-54.857 24.608-54.857 54.857v118.596h15.673V332.8c0-18.922 13.483-34.755 31.347-38.397v156.993h15.673v-33.698h15.673V512h266.449v-94.302h16.718v33.698h15.673V294.403c17.864 3.641 31.347 19.474 31.347 38.397v118.596h15.673V332.8c.002-30.249-24.607-54.857-54.855-54.857zM122.253 402.024H106.58v-66.873h15.673v66.873zm167.706 94.303h-68.963v-34.482c0-19.013 15.469-34.482 34.482-34.482s34.482 15.469 34.482 34.482v34.482zm115.461-94.303h-16.718v-66.873h16.718v66.873z"/><path d="M428.931 399.151h15.673V512h-15.673z"/></svg>