<svg xmlns="http://www.w3.org/2000/svg" viewBox="0 0 489.428 489.428"><path d="M244.674 318.414c12.5-.2 24.2-1.9 34.9-5.1 11.3 22.7 45.3 57 145.5 82.2 29.4 7.5 31.2 44.5 29.7 65.9-.7 9.4 6.5 17.6 15.9 18.3h1.2c8.9 0 16.5-6.9 17.1-15.9 3.8-54.6-16.4-91.6-55.6-101.6-91.5-23-116.2-51.5-122.8-64 6.4-4.6 12.4-9.9 17.8-16.1 45.6-51.4 38.2-139.2 37.3-147.9-5.3-114-94.6-124.1-121.9-124.5h-2c-56.3.6-117.8 33.7-122.2 124.5-.9 8.7-8.3 96.5 37.3 147.9 6.2 7 13.2 13.1 20.7 18.1-8.1 13-34.9 40.3-121.6 62-39.1 9.9-59.4 47-55.5 101.5.6 9 8.2 15.9 17.1 15.9h1.2c9.4-.7 16.6-8.9 15.9-18.3-1.5-21.4.4-58.4 29.7-65.9 97.4-24.4 132.5-57.7 144.8-81.2 9.8 2.6 20.3 4 31.5 4.2h4zm-2.5-34.3c-25.5-.3-45-8.4-59.6-24.7-36.9-41.5-28.9-121.3-28.9-122.1 0-.4.1-.7.1-1.1 3.6-79.4 56.9-91.9 88.4-92.2h1.1c31.4.4 84.7 13 88.3 92.2 0 .3 0 .7.1 1 .1.8 8.1 80.6-28.9 122.1-14.6 16.4-34 24.4-59.6 24.7h-1v.1z"/></svg>