<svg xmlns="http://www.w3.org/2000/svg" viewBox="0 0 463 463"><path d="M372.96 335.135l-36.099-9.025a392.904 392.904 0 0 0 13.685-5.756C378.902 307.751 391 297.926 391 287.5c0-106.094-13.963-180.089-42.686-226.214C322.634 20.047 284.423 0 231.5 0s-91.134 20.047-116.814 61.286C85.963 107.411 72 181.406 72 287.5c0 10.426 12.098 20.251 40.454 32.854 4.68 2.08 9.336 4.018 13.685 5.756l-36.099 9.025A55.418 55.418 0 0 0 48 388.977V439.5c0 12.958 10.542 23.5 23.5 23.5h320c12.958 0 23.5-10.542 23.5-23.5v-50.523a55.418 55.418 0 0 0-42.04-53.842zm-205.82-3.814a31.454 31.454 0 0 0 23.86-30.56v-7.016c12.56 5.971 26.22 9.255 40.5 9.255 13.988 0 27.707-3.19 40.5-9.25v7.012a31.455 31.455 0 0 0 23.86 30.56l9.428 2.357c-18.438 22.597-45.948 47.976-73.788 57.899-27.84-9.924-55.35-35.303-73.788-57.899l9.428-2.358zM231.5 288c-53.21 0-96.5-54.056-96.5-120.5v-4.767c41.692-38.04 122.957-43.197 154.875-43.688 6.15 20.354 17.184 47.203 36.407 70.288-3.991 27.088-15.388 51.782-32.284 69.828C276.585 277.758 254.39 288 231.5 288zM87 287.205c.026-103.045 13.248-174.357 40.419-217.99C150.452 32.227 183.524 15 231.5 15s81.048 17.227 104.081 54.214c27.171 43.633 40.393 114.945 40.419 217.99-.447.984-4.403 7.605-33.535 20.318-13.31 5.808-26.386 10.463-31.296 12.164l-11.671-2.918A16.477 16.477 0 0 1 287 300.76v-15.74c6.354-4.439 12.371-9.654 17.948-15.61 19.716-21.058 32.735-49.988 36.66-81.463a7.496 7.496 0 0 0-1.788-5.854c-20.616-23.662-31.549-52.536-37.091-72.592a7.499 7.499 0 0 0-7.229-5.502c-16.794 0-50.154 1.118-84.892 8.606-39.016 8.41-68.741 22.382-88.348 41.528a7.502 7.502 0 0 0-2.26 5.366v8c0 50.177 22.56 94.071 56 117.49v15.771c0 7.585-5.14 14.168-12.498 16.008l-11.671 2.918c-4.895-1.695-17.909-6.328-31.208-12.126C91.411 294.824 87.448 288.189 87 287.205zM400 439.5c0 4.687-3.813 8.5-8.5 8.5H351v-36.915a7.5 7.5 0 0 0-15 0V448H127v-36.915a7.5 7.5 0 0 0-15 0V448H71.5c-4.687 0-8.5-3.813-8.5-8.5v-50.523a40.442 40.442 0 0 1 30.677-39.291l48.045-12.011c30.193 39.583 64.629 61.538 87.459 68.958a7.494 7.494 0 0 0 4.636 0c22.83-7.42 57.266-29.375 87.459-68.958l48.045 12.011A40.442 40.442 0 0 1 400 388.977V439.5z"/></svg>