<?xml version="1.0" encoding="iso-8859-1"?>
<!-- Generator: Adobe Illustrator 19.0.0, SVG Export Plug-In . SVG Version: 6.00 Build 0)  -->
<svg version="1.1" id="Layer_1" xmlns="http://www.w3.org/2000/svg" xmlns:xlink="http://www.w3.org/1999/xlink" x="0px" y="0px"
	 viewBox="0 0 512 512" style="enable-background:new 0 0 512 512;" xml:space="preserve">
<g>
	<g>
		<path d="M206.89,157.257c-14.692,0-26.645,11.953-26.645,26.645s11.953,26.645,26.645,26.645
			c14.692,0,26.645-11.953,26.645-26.645S221.582,157.257,206.89,157.257z M206.89,194.873c-6.05,0-10.971-4.921-10.971-10.971
			c0-6.05,4.921-10.971,10.971-10.971c6.05,0,10.971,4.922,10.971,10.971C217.861,189.952,212.94,194.873,206.89,194.873z"/>
	</g>
</g>
<g>
	<g>
		<path d="M304.065,157.257c-14.691,0-26.645,11.953-26.645,26.645s11.954,26.645,26.645,26.645s26.645-11.953,26.645-26.645
			S318.757,157.257,304.065,157.257z M304.065,194.873c-6.05,0-10.971-4.921-10.971-10.971c0-6.05,4.921-10.971,10.971-10.971
			s10.971,4.922,10.971,10.971C315.037,189.952,310.115,194.873,304.065,194.873z"/>
	</g>
</g>
<g>
	<g>
		<path d="M175.02,367.804c-14.404,0-26.122,11.719-26.122,26.122s11.719,26.122,26.122,26.122
			c14.404,0,26.122-11.719,26.122-26.122S189.424,367.804,175.02,367.804z M175.02,404.375c-5.762,0-10.449-4.687-10.449-10.449
			c0-5.762,4.687-10.449,10.449-10.449c5.762,0,10.449,4.687,10.449,10.449C185.469,399.688,180.782,404.375,175.02,404.375z"/>
	</g>
</g>
<g>
	<g>
		<path d="M255.478,0C190.66,0,137.927,52.733,137.927,117.551v41.796c0,53.014,35.28,97.937,83.592,112.543v75.016
			c0,18.725,15.234,33.959,33.959,33.959c18.726,0,33.959-15.235,33.959-33.959V271.89c48.312-14.606,83.592-59.529,83.592-112.543
			v-41.796C373.029,52.733,320.295,0,255.478,0z M206.483,28.253c14.546-8.013,31.246-12.58,48.994-12.58
			c17.749,0,34.448,4.566,48.995,12.58v58.066c0,27.016-21.978,48.995-48.995,48.995c-13.087,0-25.392-5.096-34.645-14.35
			c-9.254-9.254-14.35-21.557-14.35-34.646V28.253z M153.6,117.551c0-31.644,14.502-59.964,37.209-78.663v47.431
			c0,1.184,0.039,2.361,0.101,3.535c-15.579,10.232-28.264,23.733-37.31,39.405V117.551z M273.763,346.906
			c0,10.082-8.203,18.286-18.286,18.286c-10.082,0-18.286-8.203-18.286-18.286v-2.753c5.283,3.391,11.556,5.366,18.286,5.366
			c6.73,0,13.003-1.976,18.286-5.366V346.906z M273.763,315.559c0,10.082-8.203,18.286-18.286,18.286
			c-10.082,0-18.286-8.203-18.286-18.286v-2.753c5.283,3.391,11.556,5.366,18.286,5.366c6.73,0,13.003-1.976,18.286-5.366V315.559z
			 M273.763,284.212c0,10.082-8.203,18.286-18.286,18.286c-10.082,0-18.286-8.204-18.286-18.286v-8.738
			c5.96,0.935,12.066,1.424,18.286,1.424c6.219,0,12.326-0.49,18.286-1.424V284.212z M255.478,261.224
			c-51.309,0-93.873-38.129-100.864-87.539c3.799-26.903,17.966-50.74,39.494-66.932c3.127,9.425,8.416,18.067,15.641,25.294
			c12.214,12.214,28.455,18.941,45.729,18.941c28.52,0,52.77-18.566,61.343-44.241c3.767,2.843,7.35,5.942,10.699,9.292
			c15.562,15.561,25.76,36.008,28.818,57.669C349.338,223.108,306.779,261.224,255.478,261.224z M357.355,129.51
			c-5.134-8.93-11.418-17.218-18.752-24.553c-5.664-5.663-11.895-10.722-18.557-15.102c0.064-1.171,0.1-2.349,0.1-3.536V38.888
			c22.707,18.699,37.209,47.019,37.209,78.663V129.51z"/>
	</g>
</g>
<g>
	<g>
		<rect x="303.543" y="387.135" width="15.673" height="15.673"/>
	</g>
</g>
<g>
	<g>
		<rect x="334.89" y="387.135" width="15.674" height="15.673"/>
	</g>
</g>
<g>
	<g>
		<rect x="67.396" y="399.151" width="15.673" height="112.849"/>
	</g>
</g>
<g>
	<g>
		<path d="M413.257,277.943h-7.837v41.535h-16.718v-41.535h-86.204v15.673h70.531v202.71h-67.396v-34.482
			c0-27.655-22.499-50.155-50.155-50.155c-27.656,0-50.155,22.5-50.155,50.155v34.482h-67.396v-202.71h70.531v-15.673h-86.204
			v41.535H106.58v-41.535h-7.837c-30.248,0-54.857,24.608-54.857,54.857v118.596h15.673V332.8c0-18.922,13.483-34.755,31.347-38.397
			v156.993h15.673v-33.698h15.673V512h266.449v-94.302h16.718v33.698h15.673V294.403c17.864,3.641,31.347,19.474,31.347,38.397
			v118.596h15.673V332.8C468.114,302.551,443.505,277.943,413.257,277.943z M122.253,402.024H106.58v-66.873h15.673V402.024z
			 M289.959,496.327h-68.963v-34.482c0-19.013,15.469-34.482,34.482-34.482s34.482,15.469,34.482,34.482V496.327z M405.42,402.024
			h-16.718v-66.873h16.718V402.024z"/>
	</g>
</g>
<g>
	<g>
		<rect x="428.931" y="399.151" width="15.673" height="112.849"/>
	</g>
</g>
<g>
</g>
<g>
</g>
<g>
</g>
<g>
</g>
<g>
</g>
<g>
</g>
<g>
</g>
<g>
</g>
<g>
</g>
<g>
</g>
<g>
</g>
<g>
</g>
<g>
</g>
<g>
</g>
<g>
</g>
</svg>
